# xmcd
# 
# Track frame offsets:
#     150
#     21346
#     36006
#     42840
#     63876
# 
# Disc length: 1046
# 
# Revision: 0
# Processed by: cddbd v1.5.2PL0 Copyright (c) Steve Scherf et al.
# Submitted via: BonkEnc v1.0.8
# 
DISCID=37041405
DTITLE=氣士團 - 愛してナイト！
DYEAR=2010
DGENRE=Rock
TTITLE0=愛してナイト！
TTITLE1=愛してナイト～天上天地唯我独尊～
TTITLE2=拳の中のロックンロール
TTITLE3=愛してナイト！（KARAOKE VIRSION）
TTITLE4=愛してナイト!～天上天地唯我独尊～(KARAOKE VIRSION)
EXTD=
EXTT0=
EXTT1=
EXTT2=
EXTT3=
EXTT4=
PLAYORDER=
